<svg xmlns="http://www.w3.org/2000/svg" xmlns:xlink="http://www.w3.org/1999/xlink" x="0" y="0" width="470.3333435058594" height="403" style="
        width:470.3333435058594px;
        height:403px;
        background: #FFF;
        fill: none;
">
        <svg xmlns="http://www.w3.org/2000/svg"/>
        
        <svg xmlns="http://www.w3.org/2000/svg" class="role-diagram-draw-area"><g class="shapes-region" style="stroke: black; fill: none;"><g class="composite-shape"><path class="real" d=" M114.18,89.24 L358.85,271.28 L114.18,271.28 Z" style="stroke-width: 1; stroke: rgb(0, 0, 0); fill: none; fill-opacity: 1;"/></g><g class="arrow-line"><path class="connection real" stroke-dasharray="" d="  M114.18,271.28 L228.64,174.57" style="stroke: rgb(0, 0, 0); stroke-width: 1; fill: none; fill-opacity: 1;"/></g><g class="composite-shape"><path class="real" d=" M113.96,176.73 C113.96,152.54 133.56,132.94 157.75,132.94 C181.94,132.94 201.55,152.54 201.55,176.73 C201.55,200.92 181.94,220.52 157.75,220.52 C133.56,220.52 113.96,200.92 113.96,176.73 Z" style="stroke-width: 1; stroke: rgb(0, 0, 0); fill: none; fill-opacity: 1;"/></g><g class="composite-shape"><path class="real" d=" M187.91,229.02 C187.91,205.55 206.93,186.52 230.41,186.52 C253.88,186.52 272.91,205.55 272.91,229.02 C272.91,252.5 253.88,271.52 230.41,271.52 C206.93,271.52 187.91,252.5 187.91,229.02 Z" style="stroke-width: 1; stroke: rgb(0, 0, 0); fill: none; fill-opacity: 1;"/></g><g class="composite-shape"><path class="real" d=" M114.18,262.52 L123.96,262.52 L123.96,271.01" style="stroke-width: 1; stroke: rgb(0, 0, 0); fill: none; fill-opacity: 1;"/></g><g class="composite-shape"><path class="real" d=" M32,208.08 C32,105.49 115.16,22.33 217.74,22.33 C320.33,22.33 403.49,105.49 403.49,208.08 C403.49,310.66 320.33,393.82 217.74,393.82 C115.16,393.82 32,310.66 32,208.08 Z" style="stroke-width: 1; stroke: rgb(0, 0, 0); fill: none; fill-opacity: 1;"/></g><g/></g><g/><g/><g/></svg>
        <svg xmlns="http://www.w3.org/2000/svg" xmlns:xlink="http://www.w3.org/1999/xlink" width="469" height="401.66668701171875" style="width:469px;height:401.66668701171875px;font-family:LatinModern-Math, LatinModern, Asana-Math, Asana;background:#FFF;"><g><g><g><g transform="matrix(1,0,0,1,132.16668701171875,299.59375)"><path transform="matrix(0.017,0,0,-0.017,0,0)" d="M769 671C769 679 764 683 756 683C730 683 701 680 674 680C641 680 607 683 575 683C569 683 556 683 556 664C556 653 565 652 572 652C599 650 618 640 618 619C618 604 603 581 603 581L296 93L228 622C228 639 251 652 297 652C311 652 322 652 322 672C322 681 314 683 308 683C268 683 225 680 184 680C166 680 147 681 129 681C111 681 92 683 75 683C68 683 56 683 56 664C56 652 65 652 81 652C137 652 138 643 141 618L220 1C223 -19 227 -22 240 -22C256 -22 260 -17 268 -4L628 569C677 647 719 650 756 652C768 653 769 671 769 671Z" stroke="rgb(0,0,0)" stroke-opacity="1" stroke-width="8" fill="rgb(0,0,0)" fill-opacity="1"></path></g></g><g><g transform="matrix(1,0,0,1,147.1771240234375,299.59375)"><path transform="matrix(0.017,0,0,-0.017,0,0)" d="M722 347C722 358 713 367 702 367L76 367C65 367 56 358 56 347C56 336 65 327 76 327L702 327C713 327 722 336 722 347ZM722 153C722 164 713 173 702 173L76 173C65 173 56 164 56 153C56 142 65 133 76 133L702 133C713 133 722 142 722 153Z" stroke="rgb(0,0,0)" stroke-opacity="1" stroke-width="8" fill="rgb(0,0,0)" fill-opacity="1"></path></g></g><g><g transform="matrix(1,0,0,1,165.5,299.59375)"><path transform="matrix(0.017,0,0,-0.017,0,0)" d="M760 695C760 698 758 705 749 705C746 705 745 704 734 693L664 616C655 630 609 705 498 705C275 705 50 484 50 252C50 87 168 -22 321 -22C408 -22 484 18 537 64C630 146 647 237 647 240C647 250 635 250 635 250C629 250 624 248 622 240C613 211 590 140 521 82C452 26 389 9 337 9C247 9 141 61 141 217C141 274 162 436 262 553C323 624 417 674 506 674C608 674 667 597 667 481C667 441 664 440 664 430C664 420 675 420 679 420C692 420 692 422 697 440Z" stroke="rgb(0,0,0)" stroke-opacity="1" stroke-width="8" fill="rgb(0,0,0)" fill-opacity="1"></path></g></g><g><g transform="matrix(1,0,0,1,182.75,299.59375)"><path transform="matrix(0.017,0,0,-0.017,0,0)" d="M939 250C939 256 935 261 930 263C858 282 796 323 742 370C698 409 661 456 634 509C631 516 624 520 616 520C605 520 596 511 596 500C596 497 597 494 598 491C622 445 652 403 687 367L80 367C69 367 60 358 60 347C60 336 69 327 80 327L731 327C771 295 815 269 863 250C815 231 771 205 731 173L80 173C69 173 60 164 60 153C60 142 69 133 80 133L687 133C652 97 622 55 598 9C597 6 596 3 596 0C596 -11 605 -20 616 -20C624 -20 631 -16 634 -9C661 44 698 91 742 130C796 177 858 218 930 237C935 239 939 244 939 250Z" stroke="rgb(0,0,0)" stroke-opacity="1" stroke-width="8" fill="rgb(0,0,0)" fill-opacity="1"></path></g></g><g><g transform="matrix(1,0,0,1,204.84375,299.59375)"><path transform="matrix(0.017,0,0,-0.017,0,0)" d="M159 -230L159 730C159 741 150 750 139 750C128 750 119 741 119 730L119 -230C119 -241 128 -250 139 -250C150 -250 159 -241 159 -230Z" stroke="rgb(0,0,0)" stroke-opacity="1" stroke-width="8" fill="rgb(0,0,0)" fill-opacity="1"></path></g></g><g><g transform="matrix(1,0,0,1,212.96875,299.59375)"><path transform="matrix(0.017,0,0,-0.017,0,0)" d="M912 15C912 18 911 22 909 25L501 731C498 737 491 741 484 741C476 741 470 737 467 731L59 25C57 22 56 18 56 15C56 3 65 -5 76 -5L892 -5C903 -5 912 3 912 15ZM857 35L111 35L484 681Z" stroke="rgb(0,0,0)" stroke-opacity="1" stroke-width="8" fill="rgb(0,0,0)" fill-opacity="1"></path></g></g><g><g transform="matrix(1,0,0,1,232.82293701171875,299.59375)"><path transform="matrix(0.017,0,0,-0.017,0,0)" d="M397 625C397 644 383 661 359 661C336 661 306 638 306 608C306 588 320 572 343 572C370 572 397 598 397 625ZM360 350C360 407 318 442 268 442C166 442 109 297 109 288C109 278 121 278 121 278C130 278 131 279 139 298C164 359 210 420 265 420C279 420 297 416 297 374C297 351 294 340 290 323L196 -50C177 -126 129 -183 73 -183C67 -183 52 -183 34 -174C64 -167 79 -141 79 -121C79 -105 68 -86 41 -86C16 -86 -13 -107 -13 -143C-13 -183 27 -205 75 -205C145 -205 238 -152 263 -53L355 313C360 333 360 347 360 350ZM1260 143C1260 153 1251 153 1248 153C1238 153 1238 150 1233 135C1218 82 1186 11 1131 11C1114 11 1107 21 1107 44C1107 69 1116 93 1125 115C1144 167 1186 278 1186 335C1186 400 1146 442 1071 442C996 442 945 398 908 345C907 358 904 392 876 416C851 437 819 442 794 442C704 442 655 378 638 355C633 412 591 442 546 442C500 442 481 403 472 385C454 350 441 291 441 288C441 278 453 278 453 278C463 278 464 279 470 301C487 372 507 420 543 420C559 420 574 412 574 374C574 353 571 342 558 290L500 59C497 44 491 21 491 16C491 -2 505 -11 520 -11C532 -11 550 -3 557 17C558 19 570 66 576 91L598 181C604 203 610 225 615 248L628 298C643 329 696 420 791 420C836 420 845 383 845 350C845 325 838 297 830 267L802 151C792 114 791 108 782 75C778 55 769 21 769 16C769 -2 783 -11 798 -11C829 -11 835 14 843 46L903 287C906 300 959 420 1068 420C1111 420 1122 386 1122 350C1122 293 1080 179 1060 126C1051 102 1047 91 1047 71C1047 24 1082 -11 1129 -11C1223 -11 1260 135 1260 143ZM1759 273C1759 377 1689 442 1599 442C1465 442 1331 300 1331 158C1331 59 1398 -11 1491 -11C1624 -11 1759 127 1759 273ZM1686 312C1686 273 1666 168 1628 103C1593 45 1538 11 1492 11C1449 11 1405 42 1405 120C1405 169 1431 277 1463 328C1513 405 1570 420 1598 420C1656 420 1686 372 1686 312Z" stroke="rgb(0,0,0)" stroke-opacity="1" stroke-width="8" fill="rgb(0,0,0)" fill-opacity="1"></path></g></g><g><g transform="matrix(1,0,0,1,263,299.59375)"><path transform="matrix(0.017,0,0,-0.017,0,0)" d="M159 -230L159 730C159 741 150 750 139 750C128 750 119 741 119 730L119 -230C119 -241 128 -250 139 -250C150 -250 159 -241 159 -230Z" stroke="rgb(0,0,0)" stroke-opacity="1" stroke-width="8" fill="rgb(0,0,0)" fill-opacity="1"></path></g></g><g><g transform="matrix(1,0,0,1,272.82293701171875,299.59375)"><path transform="matrix(0.017,0,0,-0.017,0,0)" d="M722 347C722 358 713 367 702 367L76 367C65 367 56 358 56 347C56 336 65 327 76 327L702 327C713 327 722 336 722 347ZM722 153C722 164 713 173 702 173L76 173C65 173 56 164 56 153C56 142 65 133 76 133L702 133C713 133 722 142 722 153Z" stroke="rgb(0,0,0)" stroke-opacity="1" stroke-width="8" fill="rgb(0,0,0)" fill-opacity="1"></path></g></g><g><g transform="matrix(1,0,0,1,291.1458740234375,299.59375)"><path transform="matrix(0.017,0,0,-0.017,0,0)" d="M159 -230L159 730C159 741 150 750 139 750C128 750 119 741 119 730L119 -230C119 -241 128 -250 139 -250C150 -250 159 -241 159 -230Z" stroke="rgb(0,0,0)" stroke-opacity="1" stroke-width="8" fill="rgb(0,0,0)" fill-opacity="1"></path></g></g><g><g transform="matrix(1,0,0,1,295.875,299.59375)"><path transform="matrix(0.017,0,0,-0.017,0,0)" d="M397 625C397 644 383 661 359 661C336 661 306 638 306 608C306 588 320 572 343 572C370 572 397 598 397 625ZM360 350C360 407 318 442 268 442C166 442 109 297 109 288C109 278 121 278 121 278C130 278 131 279 139 298C164 359 210 420 265 420C279 420 297 416 297 374C297 351 294 340 290 323L196 -50C177 -126 129 -183 73 -183C67 -183 52 -183 34 -174C64 -167 79 -141 79 -121C79 -105 68 -86 41 -86C16 -86 -13 -107 -13 -143C-13 -183 27 -205 75 -205C145 -205 238 -152 263 -53L355 313C360 333 360 347 360 350Z" stroke="rgb(0,0,0)" stroke-opacity="1" stroke-width="8" fill="rgb(0,0,0)" fill-opacity="1"></path></g></g><g><g><g><g><g transform="matrix(1,0,0,1,303.38543701171875,303.26459350585935)"><path transform="matrix(0.0119,0,0,-0.0119,0,0)" d="M419 0L419 31L387 31C297 31 294 42 294 79L294 640C294 664 294 666 271 666C209 602 121 602 89 602L89 571C109 571 168 571 220 597L220 79C220 43 217 31 127 31L95 31L95 0C130 3 217 3 257 3C297 3 384 3 419 0Z" stroke="rgb(0,0,0)" stroke-opacity="1" stroke-width="8" fill="rgb(0,0,0)" fill-opacity="1"></path></g></g></g></g></g><g><g transform="matrix(1,0,0,1,310.34375,299.59375)"><path transform="matrix(0.017,0,0,-0.017,0,0)" d="M848 143C848 153 839 153 836 153C826 153 826 150 821 135C806 82 774 11 719 11C702 11 695 21 695 44C695 69 704 93 713 115C732 167 774 278 774 335C774 400 734 442 659 442C584 442 533 398 496 345C495 358 492 392 464 416C439 437 407 442 382 442C292 442 243 378 226 355C221 412 179 442 134 442C88 442 69 403 60 385C42 350 29 291 29 288C29 278 41 278 41 278C51 278 52 279 58 301C75 372 95 420 131 420C147 420 162 412 162 374C162 353 159 342 146 290L88 59C85 44 79 21 79 16C79 -2 93 -11 108 -11C120 -11 138 -3 145 17C146 19 158 66 164 91L186 181C192 203 198 225 203 248L216 298C231 329 284 420 379 420C424 420 433 383 433 350C433 325 426 297 418 267L390 151C380 114 379 108 370 75C366 55 357 21 357 16C357 -2 371 -11 386 -11C417 -11 423 14 431 46L491 287C494 300 547 420 656 420C699 420 710 386 710 350C710 293 668 179 648 126C639 102 635 91 635 71C635 24 670 -11 717 -11C811 -11 848 135 848 143Z" stroke="rgb(0,0,0)" stroke-opacity="1" stroke-width="8" fill="rgb(0,0,0)" fill-opacity="1"></path></g></g><g><g transform="matrix(1,0,0,1,325.2708740234375,299.59375)"><path transform="matrix(0.017,0,0,-0.017,0,0)" d="M159 -230L159 730C159 741 150 750 139 750C128 750 119 741 119 730L119 -230C119 -241 128 -250 139 -250C150 -250 159 -241 159 -230Z" stroke="rgb(0,0,0)" stroke-opacity="1" stroke-width="8" fill="rgb(0,0,0)" fill-opacity="1"></path></g></g><g><g><g><g><g transform="matrix(1,0,0,1,330.96875,293.5666870117187)"><path transform="matrix(0.0119,0,0,-0.0119,0,0)" d="M449 174L424 174C419 144 412 100 402 85C395 77 329 77 307 77L127 77L233 180C389 318 449 372 449 472C449 586 359 666 237 666C124 666 50 574 50 485C50 429 100 429 103 429C120 429 155 441 155 482C155 508 137 534 102 534C94 534 92 534 89 533C112 598 166 635 224 635C315 635 358 554 358 472C358 392 308 313 253 251L61 37C50 26 50 24 50 0L421 0Z" stroke="rgb(0,0,0)" stroke-opacity="1" stroke-width="8" fill="rgb(0,0,0)" fill-opacity="1"></path></g></g></g></g></g></g></g><g><g><g><g transform="matrix(1,0,0,1,106.76043701171875,80.07292175292969)"><path transform="matrix(0.017,0,0,-0.017,0,0)" d="M397 625C397 644 383 661 359 661C336 661 306 638 306 608C306 588 320 572 343 572C370 572 397 598 397 625ZM360 350C360 407 318 442 268 442C166 442 109 297 109 288C109 278 121 278 121 278C130 278 131 279 139 298C164 359 210 420 265 420C279 420 297 416 297 374C297 351 294 340 290 323L196 -50C177 -126 129 -183 73 -183C67 -183 52 -183 34 -174C64 -167 79 -141 79 -121C79 -105 68 -86 41 -86C16 -86 -13 -107 -13 -143C-13 -183 27 -205 75 -205C145 -205 238 -152 263 -53L355 313C360 333 360 347 360 350Z" stroke="rgb(0,0,0)" stroke-opacity="1" stroke-width="8" fill="rgb(0,0,0)" fill-opacity="1"></path></g></g></g></g><g><g><g><g transform="matrix(1,0,0,1,94.9896240234375,280)"><path transform="matrix(0.017,0,0,-0.017,0,0)" d="M848 143C848 153 839 153 836 153C826 153 826 150 821 135C806 82 774 11 719 11C702 11 695 21 695 44C695 69 704 93 713 115C732 167 774 278 774 335C774 400 734 442 659 442C584 442 533 398 496 345C495 358 492 392 464 416C439 437 407 442 382 442C292 442 243 378 226 355C221 412 179 442 134 442C88 442 69 403 60 385C42 350 29 291 29 288C29 278 41 278 41 278C51 278 52 279 58 301C75 372 95 420 131 420C147 420 162 412 162 374C162 353 159 342 146 290L88 59C85 44 79 21 79 16C79 -2 93 -11 108 -11C120 -11 138 -3 145 17C146 19 158 66 164 91L186 181C192 203 198 225 203 248L216 298C231 329 284 420 379 420C424 420 433 383 433 350C433 325 426 297 418 267L390 151C380 114 379 108 370 75C366 55 357 21 357 16C357 -2 371 -11 386 -11C417 -11 423 14 431 46L491 287C494 300 547 420 656 420C699 420 710 386 710 350C710 293 668 179 648 126C639 102 635 91 635 71C635 24 670 -11 717 -11C811 -11 848 135 848 143Z" stroke="rgb(0,0,0)" stroke-opacity="1" stroke-width="8" fill="rgb(0,0,0)" fill-opacity="1"></path></g></g></g></g><g><g><g><g transform="matrix(1,0,0,1,366.26043701171875,277.57293701171875)"><path transform="matrix(0.017,0,0,-0.017,0,0)" d="M469 273C469 377 399 442 309 442C175 442 41 300 41 158C41 59 108 -11 201 -11C334 -11 469 127 469 273ZM396 312C396 273 376 168 338 103C303 45 248 11 202 11C159 11 115 42 115 120C115 169 141 277 173 328C223 405 280 420 308 420C366 420 396 372 396 312Z" stroke="rgb(0,0,0)" stroke-opacity="1" stroke-width="8" fill="rgb(0,0,0)" fill-opacity="1"></path></g></g></g></g><g><g><g><g transform="matrix(1,0,0,1,235.28125,167.95834350585938)"><path transform="matrix(0.017,0,0,-0.017,0,0)" d="M397 625C397 644 383 661 359 661C336 661 306 638 306 608C306 588 320 572 343 572C370 572 397 598 397 625ZM360 350C360 407 318 442 268 442C166 442 109 297 109 288C109 278 121 278 121 278C130 278 131 279 139 298C164 359 210 420 265 420C279 420 297 416 297 374C297 351 294 340 290 323L196 -50C177 -126 129 -183 73 -183C67 -183 52 -183 34 -174C64 -167 79 -141 79 -121C79 -105 68 -86 41 -86C16 -86 -13 -107 -13 -143C-13 -183 27 -205 75 -205C145 -205 238 -152 263 -53L355 313C360 333 360 347 360 350Z" stroke="rgb(0,0,0)" stroke-opacity="1" stroke-width="8" fill="rgb(0,0,0)" fill-opacity="1"></path></g></g><g><g><g><g><g transform="matrix(1,0,0,1,242.79168701171875,171.62918701171876)"><path transform="matrix(0.0119,0,0,-0.0119,0,0)" d="M419 0L419 31L387 31C297 31 294 42 294 79L294 640C294 664 294 666 271 666C209 602 121 602 89 602L89 571C109 571 168 571 220 597L220 79C220 43 217 31 127 31L95 31L95 0C130 3 217 3 257 3C297 3 384 3 419 0Z" stroke="rgb(0,0,0)" stroke-opacity="1" stroke-width="8" fill="rgb(0,0,0)" fill-opacity="1"></path></g></g></g></g></g></g></g><g><g><g><g transform="matrix(1,0,0,1,148.16668701171875,190.41)"><path transform="matrix(0.02941,0,0,-0.02941,0,0)" d="M769 671C769 679 764 683 756 683C730 683 701 680 674 680C641 680 607 683 575 683C569 683 556 683 556 664C556 653 565 652 572 652C599 650 618 640 618 619C618 604 603 581 603 581L296 93L228 622C228 639 251 652 297 652C311 652 322 652 322 672C322 681 314 683 308 683C268 683 225 680 184 680C166 680 147 681 129 681C111 681 92 683 75 683C68 683 56 683 56 664C56 652 65 652 81 652C137 652 138 643 141 618L220 1C223 -19 227 -22 240 -22C256 -22 260 -17 268 -4L628 569C677 647 719 650 756 652C768 653 769 671 769 671Z" stroke="rgb(0,0,0)" stroke-opacity="1" stroke-width="8" fill="rgb(0,0,0)" fill-opacity="1"></path></g></g></g></g><g><g><g><g transform="matrix(1,0,0,1,220.16668701171875,241.41)"><path transform="matrix(0.02941,0,0,-0.02941,0,0)" d="M760 695C760 698 758 705 749 705C746 705 745 704 734 693L664 616C655 630 609 705 498 705C275 705 50 484 50 252C50 87 168 -22 321 -22C408 -22 484 18 537 64C630 146 647 237 647 240C647 250 635 250 635 250C629 250 624 248 622 240C613 211 590 140 521 82C452 26 389 9 337 9C247 9 141 61 141 217C141 274 162 436 262 553C323 624 417 674 506 674C608 674 667 597 667 481C667 441 664 440 664 430C664 420 675 420 679 420C692 420 692 422 697 440Z" stroke="rgb(0,0,0)" stroke-opacity="1" stroke-width="8" fill="rgb(0,0,0)" fill-opacity="1"></path></g></g></g></g></svg>
</svg>
